-
http:// www. Speed. Cd       
http:// www. Speed. Cd       the fast  and The Hottest Private Tracker on the net

Please Seed back to make the speed Faster!!!

and don't forget to visit      ...... www. Speed. Cd..........
-      *********** ****    ****      ***      ******** *********** ****    *** **********
           *+*     +*+*+* *+*+*+   *+* *+*   *+*    *+*    *+*     *+*+*   *+* *+*        
           +*+     +*+ +*+*+ +*+  +*+   +*+  +*+           +*+     *+*+*+  +*+ +*+        
           +$+     +$+  +*+  +$+ +$++*++$++* *$*           +$+     +$+ +*+ +$+ +$++*++$  
           +$+     +$+       +$+ +$+     +$+ +$+   +$+$    +$+     +$+  +$+$+$ +$+        
           $+$     $+$       $+$ $+$     $+$ $+$    $+$    $+$     $+$   $+$+$ $+$        
       $$$$$$$$$$$ $$$       $$$ $$$     $$$  $$$$$$$$ $$$$$$$$$$$ $$$    $$$$ $$$$$$$$$$     
                                                



                           Another Fine Release Brought to you from - IMAGiNE                   
                                                 

********************************************************************************************************************                                
                          No Strings Attached 2011 720p BRRip XviD AC3-IMAGiNE
********************************************************************************************************************

Ripper ...........:IMAGiNE                                             IMDB Rating.......:6.3/10                             
Video Codec.......:XVID                                                Release Date......:25/04/11
Audio Codec.......:AC-3                                                Theatre Date......:21/01/11
Audio Bitrate.....:448                                                 Runtime...........:1h 37mn
Subtitles.........:NIL                                                 Language..........:ENGLISH
Resolution........:1 280 x 536                                         IMDb URL..........:http://www.imdb.com/title/tt1411238/


[color=yellow]DETAILS:[/color]

Video
ID                               : 0
Format                           : MPEG-4 Visual
Format profile                   : Advanced Simple@L5
Format settings, BVOP            : Yes
Format settings, QPel            : No
Format settings, GMC             : No warppoints
Format settings, Matrix          : Default (H.263)
Muxing mode                      : Packed bitstream
Codec ID                         : XVID
Codec ID/Hint                    : XviD
Duration                         : 1h 47mn
Bit rate                         : 2 856 Kbps
Width                            : 1 280 pixels
Height                           : 536 pixels
Display aspect ratio             : 2.35:1
Frame rate                       : 23.976 fps
Color space                      : YUV
Chroma subsampling               : 4:2:0
Bit depth                        : 8 bits
Scan type                        : Progressive
Compression mode                 : Lossy
Bits/(Pixel*Frame)               : 0.174
Stream size                      : 2.15 GiB (86%)
Writing library                  : XviD 1.2.1 (UTC 2008-12-04)

Audio
ID                               : 1
Format                           : AC-3
Format/Info                      : Audio Coding 3
Mode extension                   : CM (complete main)
Codec ID                         : 2000
Duration                         : 1h 47mn
Bit rate mode                    : Constant
Bit rate                         : 448 Kbps
Channel(s)                       : 6 channels
Channel positions                : Front: L C R, Side: L R, LFE
Sampling rate                    : 48.0 KHz
Bit depth                        : 16 bits
Compression mode                 : Lossy
Stream size                      : 346 MiB (14%)
Alignment                        : Split accross interleaves
Interleave, duration             : 42 ms (1.00 video frame)
Interleave, preload duration     : 500 ms





[color=yellow]SOURCES:[/color]

VIDEO: No.Strings.Attached.2011.720p.BluRay.X264-AMIABLE thanx :D
AUDIO: No.Strings.Attached.2011.720p.BluRay.X264-AMIABLE thanx :P

[color=yellow]NOTES:[/color]

IMAGiNE bringing you another release..........No Strings Attached


Here we go with a nice brrip.....source was really nice as you would expect so we just ripped it

and convert the dts track to an AC3 and remuxed.

Enjoy folks



 


[color=yellow]SCREENS:[/color]

[IMG]http://www.grinshare.com/img/KQ8IQ7.jpg[/IMG]
[IMG]http://www.grinshare.com/img/Q7VXKT.jpg[/IMG]
[IMG]http://www.grinshare.com/img/84TGAV.jpg[/IMG]
[IMG]http://www.grinshare.com/img/4VR9A7.jpg[/IMG]
[IMG]http://www.grinshare.com/img/Z3CSI3.jpg[/IMG]
[IMG]http://www.grinshare.com/img/S6OKUV.jpg[/IMG]


[color=yellow]GREETS:[/color]

FLAWL3SS,ViSiON,FUSiON,Rx,SecretMyth,BirdFlu,ELEKTRI4KA,TOXiCiNK,ADDiCTED,CiNEDUB and Autotron
And to all the other p2p grps past and present 


[COLOR=RED]Looking for these,syncers,cammers,silver supplier,Audio.....Have anything to offer????......
Contact us imaginegroup@hushmail.com[/COLOR]